<?xml version="1.0" standalone="no"?>
<!DOCTYPE svg PUBLIC "-//W3C//DTD SVG 20010904//EN"
 "http://www.w3.org/TR/2001/REC-SVG-20010904/DTD/svg10.dtd">
<svg version="1.0" xmlns="http://www.w3.org/2000/svg"
 width="260.000000pt" height="260.000000pt" viewBox="0 0 260.000000 260.000000"
 preserveAspectRatio="xMidYMid meet">
<metadata>
Created by potrace 1.11, written by Peter Selinger 2001-2013
</metadata>
<g transform="translate(0.000000,260.000000) scale(0.100000,-0.100000)"
fill="#000000" stroke="none">
<path d="M82 2507 l-22 -23 0 -1185 0 -1186 23 -21 23 -22 1205 0 1206 0 21
23 22 23 0 1185 0 1186 -23 21 -23 22 -1205 0 -1206 0 -21 -23z m1123 -1147
l0 -45 -62 -3 -63 -3 0 -534 0 -535 49 0 c71 0 81 -6 81 -50 0 -47 -8 -50
-111 -50 -133 0 -119 -74 -119 635 0 574 1 615 18 624 9 6 60 10 112 8 l95 -2
0 -45z m1236 40 c18 -10 19 -28 19 -625 0 -709 14 -635 -119 -635 -103 0 -111
3 -111 50 0 44 10 50 81 50 l49 0 0 535 0 534 -62 3 -63 3 -3 33 c-6 59 -2 62
98 62 50 0 100 -5 111 -10z m-834 -105 c24 -30 198 -382 272 -549 l41 -91 0
331 c0 293 2 333 16 338 28 11 120 6 132 -6 9 -9 12 -123 12 -453 0 -383 -2
-443 -16 -463 -13 -19 -24 -22 -92 -22 -56 0 -84 5 -101 17 -23 16 -244 453
-317 628 l-34 80 0 -358 c0 -404 7 -372 -82 -371 -83 1 -78 -29 -78 464 0 432
0 438 21 465 21 26 24 27 112 23 86 -3 91 -4 114 -33z"/>
</g>
</svg>
